<svg width="137" height="32" viewBox="0 0 137 32" fill="none" xmlns="http://www.w3.org/2000/svg">
<mask id="path-1-outside-1_1_10" maskUnits="userSpaceOnUse" x="-1" y="-1" width="139" height="34" fill="black">
<rect fill="white" x="-1" y="-1" width="139" height="34"/>
<path d="M8.16063 21.32V21.14H19.6406V21.32H8.16063ZM17.4606 0.399998L28.0006 30.84H30.8606V31H17.2406V30.84H20.8206L13.1806 7.22L4.88063 30.84H9.64063V31H0.840625V30.84H4.68063L15.3806 0.399998H17.4606ZM41.4869 31.38C40.0335 31.38 38.6602 31 37.3669 30.24C36.0735 29.48 35.0202 28.3867 34.2069 26.96C33.4069 25.5333 33.0069 23.82 33.0069 21.82C33.0069 19.82 33.4069 18.1067 34.2069 16.68C35.0202 15.24 36.0735 14.14 37.3669 13.38C38.6602 12.6067 40.0335 12.22 41.4869 12.22C43.2735 12.22 44.6935 12.8733 45.7469 14.18C46.8135 15.4733 47.4735 17.3067 47.7269 19.68V1.16H45.1069V0.999998H53.3269V30.84H55.9469V31H47.7269V23.96C47.4735 26.3333 46.8202 28.1667 45.7669 29.46C44.7135 30.74 43.2869 31.38 41.4869 31.38ZM42.7069 30.82C43.5469 30.82 44.3469 30.4933 45.1069 29.84C45.8802 29.1733 46.5069 28.18 46.9869 26.86C47.4802 25.5267 47.7269 23.8467 47.7269 21.82C47.7269 19.7933 47.4802 18.1133 46.9869 16.78C46.5069 15.4467 45.8802 14.4467 45.1069 13.78C44.3469 13.1133 43.5469 12.78 42.7069 12.78C41.9202 12.78 41.2869 13.1333 40.8069 13.84C40.3269 14.5467 39.9735 15.5733 39.7469 16.92C39.5202 18.2667 39.4069 19.9 39.4069 21.82C39.4069 23.74 39.5202 25.3733 39.7469 26.72C39.9735 28.0533 40.3269 29.0733 40.8069 29.78C41.2869 30.4733 41.9202 30.82 42.7069 30.82ZM65.7213 22.22C65.7213 20.8467 65.8079 19.56 65.9813 18.36C66.1546 17.1467 66.4479 16.08 66.8613 15.16C67.2746 14.24 67.8413 13.52 68.5613 13C69.2813 12.4667 70.1813 12.2 71.2613 12.2C72.1813 12.2 72.9613 12.4067 73.6013 12.82C74.2413 13.22 74.7279 13.7467 75.0613 14.4C75.3946 15.04 75.5613 15.72 75.5613 16.44C75.5613 17.36 75.2546 18.16 74.6413 18.84C74.0413 19.52 73.2413 19.86 72.2413 19.86C71.2413 19.86 70.4279 19.5533 69.8013 18.94C69.1879 18.3267 68.8813 17.5933 68.8813 16.74C68.8813 15.7667 69.1946 14.9667 69.8213 14.34C70.4613 13.7133 71.2546 13.4 72.2013 13.4C72.8413 13.4 73.4146 13.5467 73.9213 13.84C74.4279 14.1333 74.8213 14.5067 75.1013 14.96C75.3946 15.4133 75.5413 15.9067 75.5413 16.44H75.4013C75.4013 15.7467 75.2346 15.0933 74.9013 14.48C74.5679 13.8533 74.0946 13.3467 73.4813 12.96C72.8679 12.5733 72.1279 12.38 71.2613 12.38C70.2079 12.38 69.3279 12.64 68.6213 13.16C67.9279 13.68 67.3746 14.3933 66.9613 15.3C66.5613 16.2067 66.2746 17.2533 66.1013 18.44C65.9279 19.6267 65.8413 20.8867 65.8413 22.22H65.7213ZM65.8413 12.6V30.84H68.8013V31H57.6413V30.84H60.2613V12.76H57.6413V12.6H65.8413ZM82.7534 7.4C81.7934 7.4 80.9868 7.07333 80.3334 6.42C79.6801 5.76666 79.3534 4.96 79.3534 4C79.3534 3.04 79.6801 2.23333 80.3334 1.58C80.9868 0.926665 81.7934 0.599998 82.7534 0.599998C83.7134 0.599998 84.5201 0.926665 85.1734 1.58C85.8268 2.23333 86.1534 3.04 86.1534 4C86.1534 4.96 85.8268 5.76666 85.1734 6.42C84.5334 7.07333 83.7268 7.4 82.7534 7.4ZM85.5534 12.6V30.84H88.1534V31H77.3334V30.84H79.9534V12.76H77.3334V12.6H85.5534ZM106.69 31.4C105.823 31.4 105.043 31.2867 104.35 31.06C103.67 30.8333 103.123 30.4667 102.71 29.96C102.31 29.44 102.11 28.7533 102.11 27.9V18.82C102.11 17.86 102.023 16.9 101.85 15.94C101.676 14.9667 101.323 14.16 100.79 13.52C100.256 12.8667 99.4564 12.54 98.3897 12.54C97.7497 12.54 97.063 12.62 96.3297 12.78C95.5964 12.94 94.903 13.18 94.2497 13.5C93.6097 13.82 93.083 14.2333 92.6697 14.74C92.2564 15.2467 92.0497 15.8533 92.0497 16.56H91.8897C91.8897 15.72 92.203 15.0467 92.8297 14.54C93.4697 14.02 94.203 13.76 95.0297 13.76C95.9097 13.76 96.6764 13.9933 97.3297 14.46C97.983 14.9267 98.3097 15.6 98.3097 16.48C98.3097 17.4267 97.9764 18.1467 97.3097 18.64C96.643 19.12 95.883 19.36 95.0297 19.36C94.123 19.36 93.363 19.1133 92.7497 18.62C92.1497 18.1133 91.8497 17.4267 91.8497 16.56C91.8497 15.8133 92.063 15.1733 92.4897 14.64C92.9297 14.0933 93.5164 13.6467 94.2497 13.3C94.983 12.9533 95.7964 12.7 96.6897 12.54C97.583 12.3667 98.483 12.28 99.3897 12.28C101.43 12.28 103.056 12.5667 104.27 13.14C105.483 13.7 106.356 14.4733 106.89 15.46C107.436 16.4467 107.71 17.5667 107.71 18.82V29.08C107.71 29.52 107.816 29.8933 108.03 30.2C108.256 30.5067 108.63 30.66 109.15 30.66C109.523 30.66 109.99 30.4867 110.55 30.14C111.11 29.78 111.576 29.22 111.95 28.46L112.07 28.54C111.67 29.46 110.99 30.1667 110.03 30.66C109.07 31.1533 107.956 31.4 106.69 31.4ZM96.1497 31.4C94.4164 31.4 93.0297 30.96 91.9897 30.08C90.963 29.1867 90.4497 27.98 90.4497 26.46C90.4497 24.6733 91.2164 23.3 92.7497 22.34C94.2964 21.38 96.4897 20.9 99.3297 20.9H103.97V21.06H100.69C99.6764 21.06 98.863 21.3333 98.2497 21.88C97.6497 22.4133 97.2164 23.06 96.9497 23.82C96.683 24.58 96.5497 25.2933 96.5497 25.96C96.5497 26.6 96.6164 27.2133 96.7497 27.8C96.8964 28.3733 97.1364 28.8467 97.4697 29.22C97.803 29.5933 98.2497 29.78 98.8097 29.78C99.4097 29.78 99.9564 29.5667 100.45 29.14C100.956 28.7133 101.356 28.06 101.65 27.18C101.956 26.2867 102.11 25.1533 102.11 23.78H102.25C102.25 25.3533 102.023 26.7133 101.57 27.86C101.116 29.0067 100.436 29.8867 99.5297 30.5C98.6364 31.1 97.5097 31.4 96.1497 31.4ZM121.193 12.6V30.84H123.213V31H112.993V30.84H115.613V12.76H112.993V12.6H121.193ZM133.413 18.24V30.84H136.013V31H125.793V30.84H127.813V18.34C127.813 17.22 127.766 16.2933 127.673 15.56C127.579 14.8133 127.393 14.26 127.113 13.9C126.846 13.5267 126.433 13.34 125.873 13.34C124.913 13.34 124.126 13.62 123.513 14.18C122.899 14.74 122.419 15.4667 122.073 16.36C121.739 17.2533 121.506 18.2067 121.373 19.22C121.253 20.22 121.193 21.1733 121.193 22.08L121.053 22.18C121.053 21.1933 121.126 20.1267 121.273 18.98C121.419 17.8333 121.713 16.7467 122.153 15.72C122.593 14.6933 123.259 13.8533 124.153 13.2C125.046 12.5333 126.239 12.2 127.733 12.2C129.226 12.2 130.379 12.46 131.193 12.98C132.019 13.5 132.593 14.22 132.913 15.14C133.246 16.0467 133.413 17.08 133.413 18.24Z"/>
</mask>
<path d="M8.16063 21.32V21.14H19.6406V21.32H8.16063ZM17.4606 0.399998L28.0006 30.84H30.8606V31H17.2406V30.84H20.8206L13.1806 7.22L4.88063 30.84H9.64063V31H0.840625V30.84H4.68063L15.3806 0.399998H17.4606ZM41.4869 31.38C40.0335 31.38 38.6602 31 37.3669 30.24C36.0735 29.48 35.0202 28.3867 34.2069 26.96C33.4069 25.5333 33.0069 23.82 33.0069 21.82C33.0069 19.82 33.4069 18.1067 34.2069 16.68C35.0202 15.24 36.0735 14.14 37.3669 13.38C38.6602 12.6067 40.0335 12.22 41.4869 12.22C43.2735 12.22 44.6935 12.8733 45.7469 14.18C46.8135 15.4733 47.4735 17.3067 47.7269 19.68V1.16H45.1069V0.999998H53.3269V30.84H55.9469V31H47.7269V23.96C47.4735 26.3333 46.8202 28.1667 45.7669 29.46C44.7135 30.74 43.2869 31.38 41.4869 31.38ZM42.7069 30.82C43.5469 30.82 44.3469 30.4933 45.1069 29.84C45.8802 29.1733 46.5069 28.18 46.9869 26.86C47.4802 25.5267 47.7269 23.8467 47.7269 21.82C47.7269 19.7933 47.4802 18.1133 46.9869 16.78C46.5069 15.4467 45.8802 14.4467 45.1069 13.78C44.3469 13.1133 43.5469 12.78 42.7069 12.78C41.9202 12.78 41.2869 13.1333 40.8069 13.84C40.3269 14.5467 39.9735 15.5733 39.7469 16.92C39.5202 18.2667 39.4069 19.9 39.4069 21.82C39.4069 23.74 39.5202 25.3733 39.7469 26.72C39.9735 28.0533 40.3269 29.0733 40.8069 29.78C41.2869 30.4733 41.9202 30.82 42.7069 30.82ZM65.7213 22.22C65.7213 20.8467 65.8079 19.56 65.9813 18.36C66.1546 17.1467 66.4479 16.08 66.8613 15.16C67.2746 14.24 67.8413 13.52 68.5613 13C69.2813 12.4667 70.1813 12.2 71.2613 12.2C72.1813 12.2 72.9613 12.4067 73.6013 12.82C74.2413 13.22 74.7279 13.7467 75.0613 14.4C75.3946 15.04 75.5613 15.72 75.5613 16.44C75.5613 17.36 75.2546 18.16 74.6413 18.84C74.0413 19.52 73.2413 19.86 72.2413 19.86C71.2413 19.86 70.4279 19.5533 69.8013 18.94C69.1879 18.3267 68.8813 17.5933 68.8813 16.74C68.8813 15.7667 69.1946 14.9667 69.8213 14.34C70.4613 13.7133 71.2546 13.4 72.2013 13.4C72.8413 13.4 73.4146 13.5467 73.9213 13.84C74.4279 14.1333 74.8213 14.5067 75.1013 14.96C75.3946 15.4133 75.5413 15.9067 75.5413 16.44H75.4013C75.4013 15.7467 75.2346 15.0933 74.9013 14.48C74.5679 13.8533 74.0946 13.3467 73.4813 12.96C72.8679 12.5733 72.1279 12.38 71.2613 12.38C70.2079 12.38 69.3279 12.64 68.6213 13.16C67.9279 13.68 67.3746 14.3933 66.9613 15.3C66.5613 16.2067 66.2746 17.2533 66.1013 18.44C65.9279 19.6267 65.8413 20.8867 65.8413 22.22H65.7213ZM65.8413 12.6V30.84H68.8013V31H57.6413V30.84H60.2613V12.76H57.6413V12.6H65.8413ZM82.7534 7.4C81.7934 7.4 80.9868 7.07333 80.3334 6.42C79.6801 5.76666 79.3534 4.96 79.3534 4C79.3534 3.04 79.6801 2.23333 80.3334 1.58C80.9868 0.926665 81.7934 0.599998 82.7534 0.599998C83.7134 0.599998 84.5201 0.926665 85.1734 1.58C85.8268 2.23333 86.1534 3.04 86.1534 4C86.1534 4.96 85.8268 5.76666 85.1734 6.42C84.5334 7.07333 83.7268 7.4 82.7534 7.4ZM85.5534 12.6V30.84H88.1534V31H77.3334V30.84H79.9534V12.76H77.3334V12.6H85.5534ZM106.69 31.4C105.823 31.4 105.043 31.2867 104.35 31.06C103.67 30.8333 103.123 30.4667 102.71 29.96C102.31 29.44 102.11 28.7533 102.11 27.9V18.82C102.11 17.86 102.023 16.9 101.85 15.94C101.676 14.9667 101.323 14.16 100.79 13.52C100.256 12.8667 99.4564 12.54 98.3897 12.54C97.7497 12.54 97.063 12.62 96.3297 12.78C95.5964 12.94 94.903 13.18 94.2497 13.5C93.6097 13.82 93.083 14.2333 92.6697 14.74C92.2564 15.2467 92.0497 15.8533 92.0497 16.56H91.8897C91.8897 15.72 92.203 15.0467 92.8297 14.54C93.4697 14.02 94.203 13.76 95.0297 13.76C95.9097 13.76 96.6764 13.9933 97.3297 14.46C97.983 14.9267 98.3097 15.6 98.3097 16.48C98.3097 17.4267 97.9764 18.1467 97.3097 18.64C96.643 19.12 95.883 19.36 95.0297 19.36C94.123 19.36 93.363 19.1133 92.7497 18.62C92.1497 18.1133 91.8497 17.4267 91.8497 16.56C91.8497 15.8133 92.063 15.1733 92.4897 14.64C92.9297 14.0933 93.5164 13.6467 94.2497 13.3C94.983 12.9533 95.7964 12.7 96.6897 12.54C97.583 12.3667 98.483 12.28 99.3897 12.28C101.43 12.28 103.056 12.5667 104.27 13.14C105.483 13.7 106.356 14.4733 106.89 15.46C107.436 16.4467 107.71 17.5667 107.71 18.82V29.08C107.71 29.52 107.816 29.8933 108.03 30.2C108.256 30.5067 108.63 30.66 109.15 30.66C109.523 30.66 109.99 30.4867 110.55 30.14C111.11 29.78 111.576 29.22 111.95 28.46L112.07 28.54C111.67 29.46 110.99 30.1667 110.03 30.66C109.07 31.1533 107.956 31.4 106.69 31.4ZM96.1497 31.4C94.4164 31.4 93.0297 30.96 91.9897 30.08C90.963 29.1867 90.4497 27.98 90.4497 26.46C90.4497 24.6733 91.2164 23.3 92.7497 22.34C94.2964 21.38 96.4897 20.9 99.3297 20.9H103.97V21.06H100.69C99.6764 21.06 98.863 21.3333 98.2497 21.88C97.6497 22.4133 97.2164 23.06 96.9497 23.82C96.683 24.58 96.5497 25.2933 96.5497 25.96C96.5497 26.6 96.6164 27.2133 96.7497 27.8C96.8964 28.3733 97.1364 28.8467 97.4697 29.22C97.803 29.5933 98.2497 29.78 98.8097 29.78C99.4097 29.78 99.9564 29.5667 100.45 29.14C100.956 28.7133 101.356 28.06 101.65 27.18C101.956 26.2867 102.11 25.1533 102.11 23.78H102.25C102.25 25.3533 102.023 26.7133 101.57 27.86C101.116 29.0067 100.436 29.8867 99.5297 30.5C98.6364 31.1 97.5097 31.4 96.1497 31.4ZM121.193 12.6V30.84H123.213V31H112.993V30.84H115.613V12.76H112.993V12.6H121.193ZM133.413 18.24V30.84H136.013V31H125.793V30.84H127.813V18.34C127.813 17.22 127.766 16.2933 127.673 15.56C127.579 14.8133 127.393 14.26 127.113 13.9C126.846 13.5267 126.433 13.34 125.873 13.34C124.913 13.34 124.126 13.62 123.513 14.18C122.899 14.74 122.419 15.4667 122.073 16.36C121.739 17.2533 121.506 18.2067 121.373 19.22C121.253 20.22 121.193 21.1733 121.193 22.08L121.053 22.18C121.053 21.1933 121.126 20.1267 121.273 18.98C121.419 17.8333 121.713 16.7467 122.153 15.72C122.593 14.6933 123.259 13.8533 124.153 13.2C125.046 12.5333 126.239 12.2 127.733 12.2C129.226 12.2 130.379 12.46 131.193 12.98C132.019 13.5 132.593 14.22 132.913 15.14C133.246 16.0467 133.413 17.08 133.413 18.24Z" fill="url(#paint0_linear_1_10)"/>
<path d="M8.16063 21.32H7.16063V22.32H8.16063V21.32ZM8.16063 21.14V20.14H7.16063V21.14H8.16063ZM19.6406 21.14H20.6406V20.14H19.6406V21.14ZM19.6406 21.32V22.32H20.6406V21.32H19.6406ZM17.4606 0.399998L18.4056 0.0728024L18.1726 -0.600002H17.4606V0.399998ZM28.0006 30.84L27.0557 31.1672L27.2886 31.84H28.0006V30.84ZM30.8606 30.84H31.8606V29.84H30.8606V30.84ZM30.8606 31V32H31.8606V31H30.8606ZM17.2406 31H16.2406V32H17.2406V31ZM17.2406 30.84V29.84H16.2406V30.84H17.2406ZM20.8206 30.84V31.84H22.1951L21.7721 30.5322L20.8206 30.84ZM13.1806 7.22L14.1321 6.91224L13.2199 4.09197L12.2372 6.88848L13.1806 7.22ZM4.88063 30.84L3.93718 30.5085L3.46928 31.84H4.88063V30.84ZM9.64063 30.84H10.6406V29.84H9.64063V30.84ZM9.64063 31V32H10.6406V31H9.64063ZM0.840625 31H-0.159375V32H0.840625V31ZM0.840625 30.84V29.84H-0.159375V30.84H0.840625ZM4.68063 30.84V31.84H5.3891L5.62404 31.1716L4.68063 30.84ZM15.3806 0.399998V-0.600002H14.6722L14.4372 0.068378L15.3806 0.399998ZM9.16063 21.32V21.14H7.16063V21.32H9.16063ZM8.16063 22.14H19.6406V20.14H8.16063V22.14ZM18.6406 21.14V21.32H20.6406V21.14H18.6406ZM19.6406 20.32H8.16063V22.32H19.6406V20.32ZM16.5157 0.727194L27.0557 31.1672L28.9456 30.5128L18.4056 0.0728024L16.5157 0.727194ZM28.0006 31.84H30.8606V29.84H28.0006V31.84ZM29.8606 30.84V31H31.8606V30.84H29.8606ZM30.8606 30H17.2406V32H30.8606V30ZM18.2406 31V30.84H16.2406V31H18.2406ZM17.2406 31.84H20.8206V29.84H17.2406V31.84ZM21.7721 30.5322L14.1321 6.91224L12.2292 7.52776L19.8692 31.1478L21.7721 30.5322ZM12.2372 6.88848L3.93718 30.5085L5.82407 31.1715L14.1241 7.55152L12.2372 6.88848ZM4.88063 31.84H9.64063V29.84H4.88063V31.84ZM8.64063 30.84V31H10.6406V30.84H8.64063ZM9.64063 30H0.840625V32H9.64063V30ZM1.84063 31V30.84H-0.159375V31H1.84063ZM0.840625 31.84H4.68063V29.84H0.840625V31.84ZM5.62404 31.1716L16.324 0.731618L14.4372 0.068378L3.73721 30.5084L5.62404 31.1716ZM15.3806 1.4H17.4606V-0.600002H15.3806V1.4ZM37.3669 30.24L36.8602 31.1022L37.3669 30.24ZM34.2069 26.96L33.3346 27.4491L33.3381 27.4553L34.2069 26.96ZM34.2069 16.68L33.3362 16.1882L33.3346 16.1909L34.2069 16.68ZM37.3669 13.38L37.8735 14.2422L37.8801 14.2383L37.3669 13.38ZM45.7469 14.18L44.9683 14.8076L44.9754 14.8163L45.7469 14.18ZM47.7269 19.68L46.7325 19.7861L48.7269 19.68H47.7269ZM47.7269 1.16H48.7269V0.159998H47.7269V1.16ZM45.1069 1.16H44.1069V2.16H45.1069V1.16ZM45.1069 0.999998V-2.38419e-06H44.1069V0.999998H45.1069ZM53.3269 0.999998H54.3269V-2.38419e-06H53.3269V0.999998ZM53.3269 30.84H52.3269V31.84H53.3269V30.84ZM55.9469 30.84H56.9469V29.84H55.9469V30.84ZM55.9469 31V32H56.9469V31H55.9469ZM47.7269 31H46.7269V32H47.7269V31ZM47.7269 23.96H48.7269L46.7325 23.8539L47.7269 23.96ZM45.7669 29.46L46.539 30.0954L46.5423 30.0915L45.7669 29.46ZM45.1069 29.84L45.7588 30.5983L45.7598 30.5974L45.1069 29.84ZM46.9869 26.86L46.049 26.513L46.0471 26.5183L46.9869 26.86ZM46.9869 16.78L46.046 17.1187L46.049 17.127L46.9869 16.78ZM45.1069 13.78L44.4474 14.5318L44.4539 14.5374L45.1069 13.78ZM40.8069 13.84L41.6341 14.4019L41.6341 14.4019L40.8069 13.84ZM39.7469 16.92L40.733 17.086L40.733 17.086L39.7469 16.92ZM39.7469 26.72L38.7607 26.886L38.761 26.8876L39.7469 26.72ZM40.8069 29.78L39.9796 30.3419L39.9847 30.3492L40.8069 29.78ZM41.4869 30.38C40.2176 30.38 39.0184 30.0506 37.8735 29.3778L36.8602 31.1022C38.302 31.9494 39.8495 32.38 41.4869 32.38V30.38ZM37.8735 29.3778C36.7449 28.7146 35.8108 27.7543 35.0756 26.4647L33.3381 27.4553C34.2296 29.019 35.4022 30.2454 36.8602 31.1022L37.8735 29.3778ZM35.0791 26.4709C34.3796 25.2235 34.0069 23.6866 34.0069 21.82H32.0069C32.0069 23.9534 32.4341 25.8432 33.3346 27.4491L35.0791 26.4709ZM34.0069 21.82C34.0069 19.9534 34.3796 18.4165 35.0791 17.1691L33.3346 16.1909C32.4341 17.7968 32.0069 19.6866 32.0069 21.82H34.0069ZM35.0776 17.1718C35.8134 15.869 36.7473 14.904 37.8735 14.2422L36.8602 12.5178C35.3998 13.376 34.227 14.611 33.3362 16.1882L35.0776 17.1718ZM37.8801 14.2383C39.0243 13.5541 40.2211 13.22 41.4869 13.22V11.22C39.846 11.22 38.2961 11.6592 36.8537 12.5217L37.8801 14.2383ZM41.4869 13.22C42.9935 13.22 44.1185 13.7534 44.9683 14.8076L46.5254 13.5524C45.2686 11.9933 43.5536 11.22 41.4869 11.22V13.22ZM44.9754 14.8163C45.8751 15.9071 46.4916 17.5286 46.7325 19.7861L48.7212 19.5739C48.4555 17.0847 47.752 15.0395 46.5183 13.5437L44.9754 14.8163ZM48.7269 19.68V1.16H46.7269V19.68H48.7269ZM47.7269 0.159998H45.1069V2.16H47.7269V0.159998ZM46.1069 1.16V0.999998H44.1069V1.16H46.1069ZM45.1069 2H53.3269V-2.38419e-06H45.1069V2ZM52.3269 0.999998V30.84H54.3269V0.999998H52.3269ZM53.3269 31.84H55.9469V29.84H53.3269V31.84ZM54.9469 30.84V31H56.9469V30.84H54.9469ZM55.9469 30H47.7269V32H55.9469V30ZM48.7269 31V23.96H46.7269V31H48.7269ZM46.7325 23.8539C46.4913 26.1137 45.8804 27.737 44.9915 28.8285L46.5423 30.0915C47.76 28.5963 48.4558 26.553 48.7212 24.0661L46.7325 23.8539ZM44.9947 28.8246C44.1492 29.8521 43.0172 30.38 41.4869 30.38V32.38C43.5566 32.38 45.2779 31.6279 46.539 30.0954L44.9947 28.8246ZM42.7069 31.82C43.8304 31.82 44.8541 31.376 45.7588 30.5983L44.455 29.0817C43.8397 29.6107 43.2633 29.82 42.7069 29.82V31.82ZM45.7598 30.5974C46.7024 29.7848 47.4091 28.6249 47.9267 27.2017L46.0471 26.5183C45.6046 27.7351 45.058 28.5618 44.4539 29.0826L45.7598 30.5974ZM47.9247 27.207C48.4726 25.7262 48.7269 23.9188 48.7269 21.82H46.7269C46.7269 23.7745 46.4878 25.3271 46.049 26.513L47.9247 27.207ZM48.7269 21.82C48.7269 19.7212 48.4726 17.9138 47.9247 16.433L46.049 17.127C46.4878 18.3129 46.7269 19.8655 46.7269 21.82H48.7269ZM47.9278 16.4413C47.411 15.0057 46.7045 13.837 45.7598 13.0226L44.4539 14.5374C45.0559 15.0564 45.6028 15.8876 46.046 17.1187L47.9278 16.4413ZM45.7663 13.0282C44.8628 12.2357 43.8367 11.78 42.7069 11.78V13.78C43.257 13.78 43.8309 13.991 44.4474 14.5318L45.7663 13.0282ZM42.7069 11.78C41.5567 11.78 40.6269 12.3252 39.9797 13.2781L41.6341 14.4019C41.9468 13.9415 42.2837 13.78 42.7069 13.78V11.78ZM39.9797 13.2781C39.3847 14.154 38.9986 15.3409 38.7607 16.754L40.733 17.086C40.9485 15.8058 41.269 14.9394 41.6341 14.4019L39.9797 13.2781ZM38.7607 16.754C38.522 18.1726 38.4069 19.8648 38.4069 21.82H40.4069C40.4069 19.9352 40.5184 18.3608 40.733 17.086L38.7607 16.754ZM38.4069 21.82C38.4069 23.7752 38.522 25.4674 38.7607 26.886L40.733 26.554C40.5184 25.2792 40.4069 23.7048 40.4069 21.82H38.4069ZM38.761 26.8876C38.9992 28.2888 39.3858 29.4676 39.9797 30.3419L41.6341 29.2181C41.268 28.6791 40.9479 27.8179 40.7327 26.5524L38.761 26.8876ZM39.9847 30.3492C40.6356 31.2894 41.5652 31.82 42.7069 31.82V29.82C42.2753 29.82 41.9381 29.6572 41.6291 29.2108L39.9847 30.3492ZM65.7213 22.22H64.7213V23.22H65.7213V22.22ZM65.9813 18.36L66.971 18.503L66.9712 18.5014L65.9813 18.36ZM66.8613 15.16L65.9491 14.7502L65.9491 14.7502L66.8613 15.16ZM68.5613 13L69.1468 13.8107L69.1565 13.8036L68.5613 13ZM73.6013 12.82L73.0587 13.66L73.065 13.6641L73.0713 13.668L73.6013 12.82ZM75.0613 14.4L74.1705 14.8545L74.1743 14.8619L75.0613 14.4ZM74.6413 18.84L73.8986 18.1702L73.8914 18.1784L74.6413 18.84ZM69.8013 18.94L69.0941 19.6471L69.1018 19.6547L69.8013 18.94ZM69.8213 14.34L69.1216 13.6254L69.1141 13.6329L69.8213 14.34ZM75.1013 14.96L74.2505 15.4855L74.256 15.4944L74.2617 15.5032L75.1013 14.96ZM75.5413 16.44V17.44H76.5413V16.44H75.5413ZM75.4013 16.44H74.4013V17.44H75.4013V16.44ZM74.9013 14.48L74.0183 14.9496L74.0226 14.9575L74.9013 14.48ZM73.4813 12.96L74.0146 12.1141L74.0146 12.1141L73.4813 12.96ZM68.6213 13.16L68.0285 12.3545L68.0213 12.36L68.6213 13.16ZM66.9613 15.3L66.0513 14.8852L66.0463 14.8964L66.9613 15.3ZM65.8413 22.22V23.22H66.8413V22.22H65.8413ZM65.8413 12.6H66.8413V11.6H65.8413V12.6ZM65.8413 30.84H64.8413V31.84H65.8413V30.84ZM68.8013 30.84H69.8013V29.84H68.8013V30.84ZM68.8013 31V32H69.8013V31H68.8013ZM57.6413 31H56.6413V32H57.6413V31ZM57.6413 30.84V29.84H56.6413V30.84H57.6413ZM60.2613 30.84V31.84H61.2613V30.84H60.2613ZM60.2613 12.76H61.2613V11.76H60.2613V12.76ZM57.6413 12.76H56.6413V13.76H57.6413V12.76ZM57.6413 12.6V11.6H56.6413V12.6H57.6413ZM66.7213 22.22C66.7213 20.8883 66.8053 19.6499 66.971 18.503L64.9915 18.217C64.8105 19.4701 64.7213 20.805 64.7213 22.22H66.7213ZM66.9712 18.5014C67.134 17.3616 67.4056 16.3884 67.7734 15.5698L65.9491 14.7502C65.4902 15.7716 65.1751 16.9317 64.9913 18.2186L66.9712 18.5014ZM67.7734 15.5698C68.1248 14.7877 68.5873 14.2147 69.1467 13.8107L67.9758 12.1893C67.0952 12.8253 66.4244 13.6923 65.9491 14.7502L67.7734 15.5698ZM69.1565 13.8036C69.6712 13.4223 70.3505 13.2 71.2613 13.2V11.2C70.012 11.2 68.8913 11.5111 67.966 12.1964L69.1565 13.8036ZM71.2613 13.2C72.0291 13.2 72.6112 13.371 73.0587 13.66L74.1438 11.98C73.3113 11.4423 72.3334 11.2 71.2613 11.2V13.2ZM73.0713 13.668C73.5622 13.9749 73.922 14.3674 74.1705 14.8545L75.952 13.9455C75.5338 13.1259 74.9203 12.4651 74.1312 11.972L73.0713 13.668ZM74.1743 14.8619C74.4335 15.3596 74.5613 15.8812 74.5613 16.44H76.5613C76.5613 15.5588 76.3556 14.7204 75.9482 13.9381L74.1743 14.8619ZM74.5613 16.44C74.5613 17.1139 74.3455 17.6749 73.8987 18.1702L75.3838 19.5098C76.1637 18.6451 76.5613 17.6061 76.5613 16.44H74.5613ZM73.8914 18.1784C73.502 18.6197 72.9874 18.86 72.2413 18.86V20.86C73.4951 20.86 74.5805 20.4203 75.3911 19.5016L73.8914 18.1784ZM72.2413 18.86C71.463 18.86 70.9139 18.6297 70.5007 18.2253L69.1018 19.6547C69.942 20.477 71.0195 20.86 72.2413 20.86V18.86ZM70.5084 18.2329C70.0791 17.8036 69.8813 17.3233 69.8813 16.74H67.8813C67.8813 17.8634 68.2967 18.8497 69.0941 19.6471L70.5084 18.2329ZM69.8813 16.74C69.8813 16.0032 70.1086 15.4669 70.5284 15.0471L69.1141 13.6329C68.2806 14.4664 67.8813 15.5301 67.8813 16.74H69.8813ZM70.5209 15.0545C70.9625 14.6221 71.4997 14.4 72.2013 14.4V12.4C71.0095 12.4 69.96 12.8046 69.1216 13.6255L70.5209 15.0545ZM72.2013 14.4C72.6822 14.4 73.0798 14.5083 73.4202 14.7054L74.4223 12.9746C73.7494 12.585 73.0003 12.4 72.2013 12.4V14.4ZM73.4202 14.7054C73.7984 14.9244 74.0655 15.1861 74.2505 15.4855L75.952 14.4345C75.577 13.8272 75.0574 13.3423 74.4223 12.9746L73.4202 14.7054ZM74.2617 15.5032C74.4517 15.7969 74.5413 16.102 74.5413 16.44H76.5413C76.5413 15.7114 76.3375 15.0298 75.9408 14.4167L74.2617 15.5032ZM75.5413 15.44H75.4013V17.44H75.5413V15.44ZM76.4013 16.44C76.4013 15.5787 76.1923 14.7613 75.7799 14.0025L74.0226 14.9575C74.2769 15.4253 74.4013 15.9147 74.4013 16.44H76.4013ZM75.7841 14.0104C75.3672 13.2266 74.7719 12.5915 74.0146 12.1141L72.9479 13.8059C73.4173 14.1018 73.7686 14.4801 74.0184 14.9496L75.7841 14.0104ZM74.0146 12.1141C73.2127 11.6086 72.2794 11.38 71.2613 11.38V13.38C71.9764 13.38 72.5231 13.5381 72.948 13.8059L74.0146 12.1141ZM71.2613 11.38C70.0385 11.38 68.9393 11.6844 68.0286 12.3546L69.2139 13.9654C69.7166 13.5956 70.3773 13.38 71.2613 13.38V11.38ZM68.0213 12.36C67.1751 12.9946 66.5236 13.8492 66.0513 14.8852L67.8712 15.7148C68.2255 14.9374 68.6807 14.3654 69.2213 13.96L68.0213 12.36ZM66.0463 14.8964C65.6032 15.9008 65.2955 17.0375 65.1118 18.2955L67.0908 18.5845C67.2537 17.4692 67.5193 16.5125 67.8762 15.7036L66.0463 14.8964ZM65.1118 18.2955C64.9307 19.5349 64.8413 20.8436 64.8413 22.22H66.8413C66.8413 20.9298 66.9251 19.7184 67.0908 18.5845L65.1118 18.2955ZM65.8413 21.22H65.7213V23.22H65.8413V21.22ZM64.8413 12.6V30.84H66.8413V12.6H64.8413ZM65.8413 31.84H68.8013V29.84H65.8413V31.84ZM67.8013 30.84V31H69.8013V30.84H67.8013ZM68.8013 30H57.6413V32H68.8013V30ZM58.6413 31V30.84H56.6413V31H58.6413ZM57.6413 31.84H60.2613V29.84H57.6413V31.84ZM61.2613 30.84V12.76H59.2613V30.84H61.2613ZM60.2613 11.76H57.6413V13.76H60.2613V11.76ZM58.6413 12.76V12.6H56.6413V12.76H58.6413ZM57.6413 13.6H65.8413V11.6H57.6413V13.6ZM85.1734 6.42L84.4663 5.71285L84.4591 5.72022L85.1734 6.42ZM85.5534 12.6H86.5534V11.6H85.5534V12.6ZM85.5534 30.84H84.5534V31.84H85.5534V30.84ZM88.1534 30.84H89.1534V29.84H88.1534V30.84ZM88.1534 31V32H89.1534V31H88.1534ZM77.3334 31H76.3334V32H77.3334V31ZM77.3334 30.84V29.84H76.3334V30.84H77.3334ZM79.9534 30.84V31.84H80.9534V30.84H79.9534ZM79.9534 12.76H80.9534V11.76H79.9534V12.76ZM77.3334 12.76H76.3334V13.76H77.3334V12.76ZM77.3334 12.6V11.6H76.3334V12.6H77.3334ZM82.7534 6.4C82.0471 6.4 81.4983 6.17068 81.0405 5.71289L79.6263 7.1271C80.4752 7.97599 81.5398 8.4 82.7534 8.4V6.4ZM81.0405 5.71289C80.5828 5.2551 80.3534 4.70633 80.3534 4H78.3534C78.3534 5.21367 78.7775 6.27822 79.6263 7.1271L81.0405 5.71289ZM80.3534 4C80.3534 3.29367 80.5828 2.74489 81.0405 2.28711L79.6263 0.872892C78.7775 1.72177 78.3534 2.78633 78.3534 4H80.3534ZM81.0405 2.28711C81.4983 1.82932 82.0471 1.6 82.7534 1.6V-0.400002C81.5398 -0.400002 80.4752 0.0240116 79.6263 0.872892L81.0405 2.28711ZM82.7534 1.6C83.4598 1.6 84.0085 1.82932 84.4663 2.28711L85.8805 0.872892C85.0317 0.0240115 83.9671 -0.400002 82.7534 -0.400002V1.6ZM84.4663 2.28711C84.9241 2.74489 85.1534 3.29367 85.1534 4H87.1534C87.1534 2.78633 86.7294 1.72177 85.8805 0.872892L84.4663 2.28711ZM85.1534 4C85.1534 4.70633 84.9241 5.2551 84.4663 5.71289L85.8805 7.1271C86.7294 6.27822 87.1534 5.21367 87.1534 4H85.1534ZM84.4591 5.72022C84.0202 6.16824 83.4772 6.4 82.7534 6.4V8.4C83.9764 8.4 85.0467 7.97843 85.8878 7.11978L84.4591 5.72022ZM84.5534 12.6V30.84H86.5534V12.6H84.5534ZM85.5534 31.84H88.1534V29.84H85.5534V31.84ZM87.1534 30.84V31H89.1534V30.84H87.1534ZM88.1534 30H77.3334V32H88.1534V30ZM78.3334 31V30.84H76.3334V31H78.3334ZM77.3334 31.84H79.9534V29.84H77.3334V31.84ZM80.9534 30.84V12.76H78.9534V30.84H80.9534ZM79.9534 11.76H77.3334V13.76H79.9534V11.76ZM78.3334 12.76V12.6H76.3334V12.76H78.3334ZM77.3334 13.6H85.5534V11.6H77.3334V13.6ZM104.35 31.06L104.033 32.0087L104.039 32.0105L104.35 31.06ZM102.71 29.96L101.917 30.5697L101.926 30.581L101.935 30.5921L102.71 29.96ZM101.85 15.94L100.865 16.1153L100.866 16.1177L101.85 15.94ZM100.79 13.52L100.015 14.1524L100.021 14.1602L100.79 13.52ZM96.3297 12.78L96.1165 11.803L96.1165 11.803L96.3297 12.78ZM94.2497 13.5L93.8098 12.6019L93.8025 12.6056L94.2497 13.5ZM92.0497 16.56V17.56H93.0497V16.56H92.0497ZM91.8897 16.56H90.8897V17.56H91.8897V16.56ZM92.8297 14.54L93.4584 15.3176L93.4603 15.3161L92.8297 14.54ZM97.3297 14.46L96.7484 15.2737L96.7484 15.2737L97.3297 14.46ZM97.3097 18.64L97.894 19.4516L97.9045 19.4438L97.3097 18.64ZM92.7497 18.62L92.1045 19.384L92.1136 19.3917L92.1229 19.3992L92.7497 18.62ZM92.4897 14.64L91.7107 14.013L91.7088 14.0153L92.4897 14.64ZM94.2497 13.3L93.8223 12.3959L93.8223 12.3959L94.2497 13.3ZM96.6897 12.54L96.866 13.5243L96.8731 13.5231L96.8802 13.5217L96.6897 12.54ZM104.27 13.14L103.842 14.0442L103.851 14.048L104.27 13.14ZM106.89 15.46L106.01 15.9355L106.015 15.9446L106.89 15.46ZM108.03 30.2L107.209 30.7711L107.217 30.7828L107.226 30.7944L108.03 30.2ZM110.55 30.14L111.076 30.9903L111.083 30.9858L111.09 30.9812L110.55 30.14ZM111.95 28.46L112.504 27.6279L111.555 26.9951L111.052 28.0191L111.95 28.46ZM112.07 28.54L112.987 28.9387L113.32 28.1718L112.624 27.7079L112.07 28.54ZM110.03 30.66L109.573 29.7706L109.573 29.7706L110.03 30.66ZM91.9897 30.08L91.3332 30.8345L91.3437 30.8434L91.9897 30.08ZM92.7497 22.34L92.2223 21.4904L92.219 21.4924L92.7497 22.34ZM103.97 20.9H104.97V19.9H103.97V20.9ZM103.97 21.06V22.06H104.97V21.06H103.97ZM98.2497 21.88L98.9141 22.6274L98.9151 22.6265L98.2497 21.88ZM96.9497 23.82L96.0061 23.4889L96.0061 23.4889L96.9497 23.82ZM96.7497 27.8L95.7746 28.0216L95.7775 28.0348L95.7809 28.0478L96.7497 27.8ZM97.4697 29.22L96.7238 29.886L96.7238 29.886L97.4697 29.22ZM100.45 29.14L99.8055 28.375L99.7955 28.3836L100.45 29.14ZM101.65 27.18L100.704 26.8553L100.701 26.8638L101.65 27.18ZM102.11 23.78V22.78H101.11V23.78H102.11ZM102.25 23.78H103.25V22.78H102.25V23.78ZM101.57 27.86L102.5 28.2277L102.5 28.2277L101.57 27.86ZM99.5297 30.5L100.087 31.3301L100.09 31.3283L99.5297 30.5ZM106.69 30.4C105.909 30.4 105.237 30.2979 104.66 30.1095L104.039 32.0105C104.849 32.2755 105.737 32.4 106.69 32.4V30.4ZM104.666 30.1113C104.148 29.9386 103.767 29.6737 103.485 29.3279L101.935 30.5921C102.479 31.2596 103.192 31.7281 104.033 32.0087L104.666 30.1113ZM103.502 29.3503C103.272 29.0514 103.11 28.5994 103.11 27.9H101.11C101.11 28.9072 101.347 29.8286 101.917 30.5697L103.502 29.3503ZM103.11 27.9V18.82H101.11V27.9H103.11ZM103.11 18.82C103.11 17.7995 103.018 16.78 102.834 15.7623L100.866 16.1177C101.029 17.02 101.11 17.9205 101.11 18.82H103.11ZM102.834 15.7647C102.636 14.6523 102.222 13.6763 101.558 12.8798L100.021 14.1602C100.424 14.6437 100.717 15.281 100.865 16.1153L102.834 15.7647ZM101.564 12.8876C100.792 11.942 99.6702 11.54 98.3897 11.54V13.54C99.2426 13.54 99.7203 13.7913 100.015 14.1524L101.564 12.8876ZM98.3897 11.54C97.667 11.54 96.9082 11.6303 96.1165 11.803L96.5429 13.757C97.2178 13.6097 97.8324 13.54 98.3897 13.54V11.54ZM96.1165 11.803C95.3072 11.9796 94.5375 12.2455 93.8098 12.6019L94.6896 14.3981C95.2685 14.1145 95.8855 13.9004 96.5429 13.757L96.1165 11.803ZM93.8025 12.6056C93.048 12.9828 92.4057 13.4816 91.8948 14.1079L93.4446 15.3721C93.7603 14.9851 94.1714 14.6572 94.6969 14.3944L93.8025 12.6056ZM91.8948 14.1079C91.3238 14.8079 91.0497 15.6429 91.0497 16.56H93.0497C93.0497 16.0637 93.189 15.6854 93.4446 15.3721L91.8948 14.1079ZM92.0497 15.56H91.8897V17.56H92.0497V15.56ZM92.8897 16.56C92.8897 16.0072 93.0778 15.6253 93.4584 15.3176L92.201 13.7624C91.3282 14.468 90.8897 15.4328 90.8897 16.56H92.8897ZM93.4603 15.3161C93.9215 14.9413 94.4321 14.76 95.0297 14.76V12.76C93.974 12.76 93.0178 13.0987 92.1991 13.7639L93.4603 15.3161ZM95.0297 14.76C95.7223 14.76 96.2811 14.9399 96.7484 15.2737L97.9109 13.6463C97.0716 13.0468 96.0971 12.76 95.0297 12.76V14.76ZM96.7484 15.2737C97.1109 15.5326 97.3097 15.8868 97.3097 16.48H99.3097C99.3097 15.3132 98.8552 14.3207 97.9109 13.6463L96.7484 15.2737ZM97.3097 16.48C97.3097 17.161 97.0881 17.56 96.7148 17.8362L97.9045 19.4438C98.8647 18.7334 99.3097 17.6924 99.3097 16.48H97.3097ZM96.7254 17.8285C96.2358 18.181 95.682 18.36 95.0297 18.36V20.36C96.0841 20.36 97.0502 20.059 97.894 19.4515L96.7254 17.8285ZM95.0297 18.36C94.3146 18.36 93.7857 18.17 93.3764 17.8408L92.1229 19.3992C92.9403 20.0567 93.9314 20.36 95.0297 20.36V18.36ZM93.3949 17.856C93.0449 17.5605 92.8497 17.1666 92.8497 16.56H90.8497C90.8497 17.6867 91.2545 18.6662 92.1045 19.384L93.3949 17.856ZM92.8497 16.56C92.8497 16.0178 92.9992 15.6039 93.2706 15.2647L91.7088 14.0153C91.1268 14.7428 90.8497 15.6088 90.8497 16.56H92.8497ZM93.2687 15.267C93.6002 14.8551 94.0591 14.4962 94.6771 14.2041L93.8223 12.3959C92.9736 12.7971 92.2592 13.3315 91.7107 14.013L93.2687 15.267ZM94.6771 14.2041C95.3218 13.8993 96.0494 13.6706 96.866 13.5243L96.5134 11.5557C95.5433 11.7294 94.6442 12.0074 93.8223 12.3959L94.6771 14.2041ZM96.8802 13.5217C97.711 13.3605 98.5472 13.28 99.3897 13.28V11.28C98.4189 11.28 97.4551 11.3728 96.4992 11.5583L96.8802 13.5217ZM99.3897 13.28C101.352 13.28 102.814 13.5581 103.842 14.0441L104.697 12.2359C103.299 11.5752 101.508 11.28 99.3897 11.28V13.28ZM103.851 14.048C104.906 14.5353 105.598 15.1734 106.01 15.9355L107.769 14.9845C107.115 13.7733 106.06 12.8647 104.689 12.232L103.851 14.048ZM106.015 15.9446C106.471 16.767 106.71 17.717 106.71 18.82H108.71C108.71 17.4163 108.402 16.1263 107.764 14.9754L106.015 15.9446ZM106.71 18.82V29.08H108.71V18.82H106.71ZM106.71 29.08C106.71 29.6869 106.859 30.2686 107.209 30.7711L108.851 29.6289C108.773 29.518 108.71 29.3531 108.71 29.08H106.71ZM107.226 30.7944C107.704 31.4419 108.437 31.66 109.15 31.66V29.66C108.984 29.66 108.896 29.6351 108.86 29.62C108.842 29.6129 108.836 29.6079 108.836 29.6076C108.836 29.6076 108.835 29.6077 108.834 29.6056L107.226 30.7944ZM109.15 31.66C109.803 31.66 110.463 31.3697 111.076 30.9903L110.023 29.2897C109.516 29.6036 109.243 29.66 109.15 29.66V31.66ZM111.09 30.9812C111.84 30.4993 112.415 29.7805 112.847 28.9009L111.052 28.0191C110.738 28.6595 110.379 29.0607 110.009 29.2988L111.09 30.9812ZM111.395 29.2921L111.515 29.3721L112.624 27.7079L112.504 27.6279L111.395 29.2921ZM111.153 28.1413C110.852 28.8329 110.344 29.3742 109.573 29.7706L110.487 31.5494C111.635 30.9592 112.487 30.0871 112.987 28.9387L111.153 28.1413ZM109.573 29.7706C108.777 30.1796 107.825 30.4 106.69 30.4V32.4C108.088 32.4 109.363 32.1271 110.487 31.5494L109.573 29.7706ZM96.1497 30.4C94.5869 30.4 93.4504 30.006 92.6356 29.3166L91.3437 30.8434C92.609 31.914 94.2458 32.4 96.1497 32.4V30.4ZM92.6461 29.3256C91.8647 28.6457 91.4497 27.7285 91.4497 26.46H89.4497C89.4497 28.2315 90.0613 29.7276 91.3333 30.8344L92.6461 29.3256ZM91.4497 26.46C91.4497 25.0231 92.0345 23.9676 93.2803 23.1876L92.219 21.4924C90.3982 22.6324 89.4497 24.3236 89.4497 26.46H91.4497ZM93.2771 23.1896C94.6 22.3685 96.5803 21.9 99.3297 21.9V19.9C96.3991 19.9 93.9927 20.3915 92.2223 21.4904L93.2771 23.1896ZM99.3297 21.9H103.97V19.9H99.3297V21.9ZM102.97 20.9V21.06H104.97V20.9H102.97ZM103.97 20.06H100.69V22.06H103.97V20.06ZM100.69 20.06C99.4907 20.06 98.421 20.3878 97.5843 21.1335L98.9151 22.6265C99.3051 22.2789 99.862 22.06 100.69 22.06V20.06ZM97.5853 21.1326C96.858 21.7791 96.3288 22.5692 96.0061 23.4889L97.8933 24.1511C98.1039 23.5508 98.4414 23.0475 98.9141 22.6274L97.5853 21.1326ZM96.0061 23.4889C95.7096 24.3338 95.5497 25.1599 95.5497 25.96H97.5497C97.5497 25.4268 97.6564 24.8261 97.8933 24.1511L96.0061 23.4889ZM95.5497 25.96C95.5497 26.6698 95.6237 27.3578 95.7746 28.0216L97.7248 27.5784C97.609 27.0689 97.5497 26.5302 97.5497 25.96H95.5497ZM95.7809 28.0478C95.96 28.7482 96.2658 29.3732 96.7238 29.886L98.2156 28.554C98.0069 28.3202 97.8327 27.9985 97.7185 27.5522L95.7809 28.0478ZM96.7238 29.886C97.2706 30.4984 98.0025 30.78 98.8097 30.78V28.78C98.4968 28.78 98.3355 28.6882 98.2156 28.554L96.7238 29.886ZM98.8097 30.78C99.6716 30.78 100.446 30.4654 101.104 29.8964L99.7955 28.3836C99.4668 28.6679 99.1478 28.78 98.8097 28.78V30.78ZM101.094 29.9049C101.787 29.3212 102.269 28.4842 102.598 27.4962L100.701 26.8638C100.444 27.6358 100.126 28.1055 99.8056 28.3751L101.094 29.9049ZM102.596 27.5047C102.95 26.4711 103.11 25.2182 103.11 23.78H101.11C101.11 25.0884 100.962 26.1023 100.704 26.8553L102.596 27.5047ZM102.11 24.78H102.25V22.78H102.11V24.78ZM101.25 23.78C101.25 25.2607 101.036 26.4901 100.64 27.4923L102.5 28.2277C103.01 26.9366 103.25 25.446 103.25 23.78H101.25ZM100.64 27.4923C100.251 28.4763 99.6887 29.1851 98.9694 29.6717L100.09 31.3283C101.184 30.5882 101.982 29.537 102.5 28.2277L100.64 27.4923ZM98.9721 29.6699C98.2823 30.1332 97.3634 30.4 96.1497 30.4V32.4C97.656 32.4 98.9904 32.0668 100.087 31.3301L98.9721 29.6699ZM121.193 12.6H122.193V11.6H121.193V12.6ZM121.193 30.84H120.193V31.84H121.193V30.84ZM123.213 30.84H124.213V29.84H123.213V30.84ZM123.213 31V32H124.213V31H123.213ZM112.993 31H111.993V32H112.993V31ZM112.993 30.84V29.84H111.993V30.84H112.993ZM115.613 30.84V31.84H116.613V30.84H115.613ZM115.613 12.76H116.613V11.76H115.613V12.76ZM112.993 12.76H111.993V13.76H112.993V12.76ZM112.993 12.6V11.6H111.993V12.6H112.993ZM133.413 30.84H132.413V31.84H133.413V30.84ZM136.013 30.84H137.013V29.84H136.013V30.84ZM136.013 31V32H137.013V31H136.013ZM125.793 31H124.793V32H125.793V31ZM125.793 30.84V29.84H124.793V30.84H125.793ZM127.813 30.84V31.84H128.813V30.84H127.813ZM127.673 15.56L126.681 15.684L126.681 15.6863L127.673 15.56ZM127.113 13.9L126.299 14.4812L126.311 14.4978L126.323 14.5139L127.113 13.9ZM122.073 16.36L121.14 15.9982L121.136 16.0104L122.073 16.36ZM121.373 19.22L120.381 19.0895L120.38 19.1009L121.373 19.22ZM121.193 22.08L121.774 22.8937L122.193 22.5946V22.08H121.193ZM121.053 22.18H120.053V24.1232L121.634 22.9937L121.053 22.18ZM121.273 18.98L122.265 19.1069L122.265 19.1069L121.273 18.98ZM122.153 15.72L123.072 16.1139L123.072 16.1139L122.153 15.72ZM124.153 13.2L124.743 14.0072L124.751 14.0014L124.153 13.2ZM131.193 12.98L130.654 13.8225L130.66 13.8265L131.193 12.98ZM132.913 15.14L131.968 15.4685L131.971 15.4768L131.974 15.4851L132.913 15.14ZM120.193 12.6V30.84H122.193V12.6H120.193ZM121.193 31.84H123.213V29.84H121.193V31.84ZM122.213 30.84V31H124.213V30.84H122.213ZM123.213 30H112.993V32H123.213V30ZM113.993 31V30.84H111.993V31H113.993ZM112.993 31.84H115.613V29.84H112.993V31.84ZM116.613 30.84V12.76H114.613V30.84H116.613ZM115.613 11.76H112.993V13.76H115.613V11.76ZM113.993 12.76V12.6H111.993V12.76H113.993ZM112.993 13.6H121.193V11.6H112.993V13.6ZM132.413 18.24V30.84H134.413V18.24H132.413ZM133.413 31.84H136.013V29.84H133.413V31.84ZM135.013 30.84V31H137.013V30.84H135.013ZM136.013 30H125.793V32H136.013V30ZM126.793 31V30.84H124.793V31H126.793ZM125.793 31.84H127.813V29.84H125.793V31.84ZM128.813 30.84V18.34H126.813V30.84H128.813ZM128.813 18.34C128.813 17.1969 128.765 16.2244 128.665 15.4337L126.681 15.6863C126.767 16.3623 126.813 17.2431 126.813 18.34H128.813ZM128.665 15.436C128.562 14.6143 128.343 13.8526 127.902 13.2861L126.323 14.5139C126.443 14.6674 126.597 15.0123 126.681 15.684L128.665 15.436ZM127.927 13.3188C127.43 12.6234 126.675 12.34 125.873 12.34V14.34C126.19 14.34 126.262 14.4299 126.299 14.4812L127.927 13.3188ZM125.873 12.34C124.705 12.34 123.665 12.6872 122.839 13.4415L124.187 14.9185C124.588 14.5528 125.121 14.34 125.873 14.34V12.34ZM122.839 13.4415C122.095 14.1204 121.534 14.9832 121.141 15.9982L123.005 16.7218C123.305 15.9501 123.704 15.3596 124.187 14.9185L122.839 13.4415ZM121.136 16.0104C120.774 16.9794 120.524 18.0067 120.381 19.0895L122.364 19.3505C122.488 18.4067 122.705 17.5273 123.01 16.7096L121.136 16.0104ZM120.38 19.1009C120.256 20.1361 120.193 21.1294 120.193 22.08H122.193C122.193 21.2172 122.25 20.3039 122.366 19.3391L120.38 19.1009ZM120.612 21.2663L120.472 21.3663L121.634 22.9937L121.774 22.8937L120.612 21.2663ZM122.053 22.18C122.053 21.2422 122.123 20.2184 122.265 19.1069L120.281 18.8531C120.13 20.0349 120.053 21.1445 120.053 22.18H122.053ZM122.265 19.1069C122.4 18.0489 122.67 17.0524 123.072 16.1139L121.234 15.3261C120.756 16.4409 120.439 17.6177 120.281 18.8531L122.265 19.1069ZM123.072 16.1139C123.442 15.2504 123.996 14.5537 124.743 14.0072L123.562 12.3928C122.523 13.153 121.744 14.1363 121.234 15.3261L123.072 16.1139ZM124.751 14.0014C125.421 13.5012 126.382 13.2 127.733 13.2V11.2C126.096 11.2 124.671 11.5655 123.555 12.3986L124.751 14.0014ZM127.733 13.2C129.132 13.2 130.067 13.4472 130.654 13.8225L131.731 12.1375C130.692 11.4728 129.321 11.2 127.733 11.2V13.2ZM130.66 13.8265C131.295 14.2259 131.723 14.7635 131.968 15.4685L133.857 14.8115C133.463 13.6765 132.744 12.7741 131.725 12.1335L130.66 13.8265ZM131.974 15.4851C132.26 16.2615 132.413 17.1747 132.413 18.24H134.413C134.413 16.9853 134.233 15.8318 133.851 14.7949L131.974 15.4851Z" fill="url(#paint1_linear_1_10)" fill-opacity="0.67" mask="url(#path-1-outside-1_1_10)"/>
<defs>
<linearGradient id="paint0_linear_1_10" x1="-2.34589" y1="20.5" x2="137.003" y2="22.2611" gradientUnits="userSpaceOnUse">
<stop stop-color="#1E93FF"/>
<stop offset="1" stop-color="#7B13FF" stop-opacity="0.7"/>
</linearGradient>
<linearGradient id="paint1_linear_1_10" x1="-11.7295" y1="21.5" x2="143.1" y2="22.3805" gradientUnits="userSpaceOnUse">
<stop stop-color="#7B13FF" stop-opacity="0.7"/>
<stop offset="1" stop-color="#1E93FF"/>
</linearGradient>
</defs>
</svg>
