<svg width="139" height="34" viewBox="0 0 139 34" fill="none" xmlns="http://www.w3.org/2000/svg">
<path fill-rule="evenodd" clip-rule="evenodd" d="M122.193 13.6H113.993V13.76H116.613V31.84H113.993V32H124.213V31.84H122.193V23.08C122.193 22.1733 122.253 21.22 122.373 20.22C122.383 20.1453 122.393 20.0709 122.404 19.9968C122.541 19.0664 122.764 18.1874 123.073 17.36C123.111 17.2611 123.151 17.1643 123.193 17.0695C123.234 16.9752 123.277 16.8828 123.322 16.7925C123.638 16.1538 124.035 15.6163 124.513 15.18C124.788 14.929 125.098 14.7342 125.442 14.5957L125.447 14.5938C125.87 14.4246 126.345 14.34 126.873 14.34C126.983 14.34 127.088 14.3472 127.187 14.3618C127.59 14.4208 127.899 14.6003 128.113 14.9C128.393 15.26 128.579 15.8133 128.673 16.56C128.766 17.2933 128.813 18.22 128.813 19.34V31.84H126.793V32H137.013V31.84H134.413V19.24C134.413 18.08 134.246 17.0467 133.913 16.14C133.593 15.22 133.019 14.5 132.193 13.98C131.379 13.46 130.226 13.2 128.733 13.2C128.154 13.2 127.62 13.2501 127.132 13.3502C127.044 13.3682 126.958 13.3878 126.873 13.409C126.211 13.5744 125.638 13.8381 125.153 14.2C124.842 14.4273 124.559 14.6773 124.303 14.9498C123.845 15.4371 123.475 15.9967 123.193 16.6286C123.179 16.6589 123.166 16.6894 123.153 16.72C123.071 16.9117 122.994 17.1055 122.922 17.3014L122.921 17.3033C122.608 18.1559 122.392 19.0482 122.273 19.98C122.263 20.0547 122.254 20.1291 122.245 20.2032L122.245 20.2046C122.226 20.3599 122.209 20.5137 122.193 20.666V13.6ZM123.193 14.7068V12.6H112.993V14.76H115.613V30.84H112.993V33H125.213V30.84H123.193V23.08C123.193 22.2188 123.25 21.3072 123.365 20.3445C123.489 19.4055 123.704 18.5303 124.007 17.7161C124.306 16.9472 124.705 16.3585 125.187 15.9185C125.588 15.5528 126.121 15.34 126.873 15.34C127.19 15.34 127.262 15.4299 127.299 15.4812L127.311 15.4978L127.323 15.5139C127.443 15.6674 127.597 16.0123 127.681 16.684L127.681 16.6863C127.767 17.3623 127.813 18.2431 127.813 19.34V30.84H125.793V33H138.013V30.84H135.413V19.24C135.413 17.9886 135.234 16.8379 134.854 15.8032C134.459 14.6732 133.742 13.7743 132.728 13.1354C131.689 12.4722 130.319 12.2 128.733 12.2C127.098 12.2 125.674 12.5646 124.558 13.3958C124.037 13.7774 123.582 14.2151 123.193 14.7068Z" fill="url(#paint0_linear_8_45)"/>
<path fill-rule="evenodd" clip-rule="evenodd" d="M105.35 32.06C106.043 32.2867 106.823 32.4 107.69 32.4C108.08 32.4 108.456 32.3766 108.817 32.3298C109.286 32.269 109.73 32.1687 110.15 32.029C110.456 31.927 110.749 31.804 111.03 31.66C111.248 31.5476 111.453 31.4241 111.642 31.2896L111.645 31.2878C112.286 30.8321 112.761 30.2495 113.07 29.54L112.95 29.46C112.946 29.4677 112.942 29.4753 112.938 29.4829C112.784 29.7938 112.614 30.0709 112.428 30.3141C112.167 30.6564 111.874 30.9317 111.55 31.14C111.329 31.2765 111.123 31.3862 110.931 31.4689C110.637 31.5963 110.376 31.66 110.15 31.66C109.673 31.66 109.32 31.5312 109.09 31.2736C109.069 31.2502 109.049 31.2256 109.03 31.2C108.816 30.8933 108.71 30.52 108.71 30.08V19.82C108.71 18.5667 108.436 17.4467 107.89 16.46C107.356 15.4733 106.483 14.7 105.27 14.14C104.398 13.7282 103.313 13.4643 102.015 13.3483C101.506 13.3028 100.964 13.28 100.39 13.28C100.055 13.28 99.7221 13.2918 99.3897 13.3153C98.8204 13.3557 98.2537 13.4306 97.6897 13.54C97.5561 13.5639 97.4243 13.5899 97.2943 13.618C97.061 13.6685 96.8333 13.7256 96.6115 13.7895C96.4129 13.8467 96.219 13.9093 96.0297 13.9772C95.7603 14.0739 95.5003 14.1815 95.2497 14.3C95.2231 14.3126 95.1966 14.3253 95.1704 14.3381L95.1691 14.3388C94.5868 14.6241 94.0998 14.9744 93.7081 15.3896C93.6401 15.4616 93.5748 15.5359 93.5126 15.6118C93.5049 15.6212 93.4973 15.6306 93.4897 15.64C93.2675 15.9177 93.1031 16.2244 92.9967 16.56C92.9498 16.7077 92.9141 16.8611 92.8897 17.02C92.863 17.1933 92.8497 17.3733 92.8497 17.56C92.8497 17.7427 92.863 17.9174 92.8897 18.0841C92.9163 18.2507 92.9563 18.4094 93.0096 18.56C93.1559 18.9736 93.4026 19.3269 93.7497 19.62C94.363 20.1133 95.123 20.36 96.0297 20.36C96.883 20.36 97.643 20.12 98.3097 19.64C98.9763 19.1467 99.3097 18.4267 99.3097 17.48C99.3097 16.6 98.983 15.9267 98.3297 15.46C97.9446 15.185 97.5203 14.991 97.0565 14.8781C96.9392 14.8495 96.8194 14.8261 96.697 14.8079C96.4823 14.776 96.2599 14.76 96.0297 14.76C95.8437 14.76 95.6624 14.7732 95.4858 14.7995C95.4591 14.8035 95.4324 14.8078 95.4059 14.8124L95.4029 14.8129C94.8489 14.9093 94.3422 15.1375 93.8828 15.4976C94.2593 15.0999 94.7149 14.7674 95.2497 14.5C95.2753 14.4875 95.3009 14.4751 95.3266 14.4628C95.5561 14.3531 95.7904 14.2532 96.0297 14.1631C96.3544 14.0408 96.6882 13.9365 97.031 13.8502C97.1298 13.8253 97.2294 13.8019 97.3297 13.78C97.4608 13.7514 97.5905 13.7253 97.7187 13.7018L97.721 13.7014C98.3086 13.5938 98.8648 13.54 99.3897 13.54C99.7541 13.54 100.087 13.5781 100.39 13.6544C100.876 13.7772 101.282 13.9988 101.607 14.3193C101.671 14.3823 101.732 14.4493 101.79 14.52C102.323 15.16 102.676 15.9667 102.85 16.94C103.023 17.9 103.11 18.86 103.11 19.82V21.9H100.33C99.799 21.9 99.2908 21.9168 98.8053 21.9503C96.6925 22.0962 95.0073 22.5594 93.7497 23.34C92.2163 24.3 91.4497 25.6733 91.4497 27.46C91.4497 28.98 91.963 30.1867 92.9897 31.08C94.0297 31.96 95.4163 32.4 97.1497 32.4C98.2875 32.4 99.262 32.19 100.073 31.7701C100.232 31.688 100.384 31.598 100.53 31.5C100.969 31.2031 101.354 30.8437 101.687 30.4218L101.69 30.418C101.863 30.1984 102.021 29.962 102.165 29.7087C102.309 29.4559 102.439 29.1864 102.554 28.9C102.559 28.8867 102.564 28.8734 102.57 28.86C102.65 28.6561 102.724 28.4455 102.79 28.2282L102.79 28.2269C102.928 27.7768 103.034 27.2978 103.11 26.7899V28.9C103.11 28.959 103.111 29.0172 103.113 29.0746C103.118 29.2405 103.132 29.3998 103.153 29.5524C103.169 29.6622 103.188 29.7686 103.212 29.8715C103.309 30.2918 103.475 30.6546 103.71 30.96C104.123 31.4667 104.67 31.8333 105.35 32.06ZM103.11 22.06H101.69C101.187 22.06 100.734 22.1272 100.33 22.2617C99.9189 22.3983 99.5589 22.6044 99.2497 22.88C99.2316 22.896 99.2137 22.9122 99.196 22.9285C98.6237 23.4524 98.2083 24.0829 97.9497 24.82C97.683 25.58 97.5497 26.2933 97.5497 26.96C97.5497 27.6 97.6163 28.2133 97.7497 28.8C97.8963 29.3733 98.1363 29.8467 98.4697 30.22C98.8006 30.5906 99.2432 30.7773 99.7975 30.78C99.8016 30.78 99.8056 30.78 99.8097 30.78C99.8859 30.78 99.9612 30.7766 100.036 30.7697L100.039 30.7694C100.55 30.7215 101.02 30.5117 101.45 30.14C101.701 29.9282 101.926 29.6606 102.125 29.3372C102.209 29.2013 102.288 29.0556 102.362 28.9C102.378 28.8661 102.394 28.8317 102.41 28.7969C102.497 28.6054 102.576 28.3998 102.65 28.18C102.956 27.2867 103.11 26.1533 103.11 24.78V22.06ZM102.11 24.78V23.06H101.69C100.862 23.06 100.305 23.2789 99.9151 23.6265L99.914 23.6274C99.4414 24.0475 99.1039 24.5508 98.8933 25.1511C98.6564 25.8261 98.5497 26.4268 98.5497 26.96C98.5497 27.5252 98.608 28.0594 98.7218 28.5649C98.836 29.0046 99.0089 29.3224 99.2156 29.554C99.3355 29.6882 99.4968 29.78 99.8097 29.78C100.148 29.78 100.467 29.6679 100.796 29.3836L100.805 29.375C101.126 29.1054 101.444 28.6358 101.701 27.8638L101.704 27.8553C101.962 27.1023 102.11 26.0884 102.11 24.78ZM102.538 30.9563C102.643 31.1718 102.769 31.3769 102.917 31.5697L102.926 31.581L102.935 31.5921C103.479 32.2596 104.192 32.7281 105.033 33.0087L105.039 33.0105C105.849 33.2755 106.737 33.4 107.69 33.4C109.088 33.4 110.363 33.1271 111.487 32.5494C112.635 31.9592 113.487 31.0871 113.987 29.9387L114.32 29.1718L112.555 27.9951L112.052 29.0191C111.739 29.6556 111.384 30.0558 111.016 30.2945C110.514 30.6042 110.243 30.66 110.15 30.66C109.984 30.66 109.896 30.6351 109.86 30.62C109.847 30.6146 109.84 30.6105 109.837 30.6087C109.766 30.4981 109.71 30.3369 109.71 30.08V19.82C109.71 18.4181 109.403 17.1295 108.767 15.9797C108.113 14.7722 107.06 13.8658 105.693 13.2341C104.295 12.5746 102.506 12.28 100.39 12.28C99.4212 12.28 98.4598 12.3724 97.5062 12.5569C96.5389 12.7308 95.6422 13.0083 94.8223 13.3959C93.9736 13.7971 93.2592 14.3315 92.7107 15.013L92.7088 15.0153C92.1268 15.7428 91.8497 16.6088 91.8497 17.56C91.8497 17.7639 91.8629 17.9629 91.8897 18.1565V18.56H91.9671C92.1427 19.2677 92.5174 19.8883 93.1045 20.384L93.1136 20.3917L93.1229 20.3992C93.9355 21.0528 94.9197 21.3564 96.0102 21.36C94.9572 21.6193 94.0245 21.9925 93.2223 22.4904L93.219 22.4924C91.3982 23.6324 90.4497 25.3236 90.4497 27.46C90.4497 29.2315 91.0613 30.7276 92.3333 31.8344L92.3437 31.8434C93.609 32.914 95.2458 33.4 97.1497 33.4C98.6559 33.4 99.9904 33.0668 101.087 32.3301L101.09 32.3283C101.649 31.9499 102.131 31.4902 102.538 30.9563ZM97.812 21.0388C98.6009 20.9452 99.4412 20.9 100.33 20.9H102.11V19.82C102.11 18.9205 102.029 18.02 101.866 17.1177L101.865 17.1153C101.717 16.281 101.424 15.6437 101.021 15.1602L101.015 15.1524C100.72 14.7913 100.243 14.54 99.3897 14.54C99.1978 14.54 98.9992 14.5483 98.7936 14.5651C98.833 14.5915 98.8721 14.6185 98.9109 14.6463C99.8552 15.3207 100.31 16.3132 100.31 17.48C100.31 18.6924 99.8646 19.7334 98.9045 20.4438L98.894 20.4516C98.5526 20.6974 98.1912 20.893 97.812 21.0388Z" fill="url(#paint1_linear_8_45)"/>
<path fill-rule="evenodd" clip-rule="evenodd" d="M87.5534 12.6V30.84H90.1534V33H77.3334V30.84H79.9534V14.76H77.3334V12.6H87.5534ZM80.9534 31.84H78.3334V32H89.1534V31.84H86.5534V13.6H78.3334V13.76H80.9534V31.84ZM83.7534 9.4C82.5398 9.4 81.4752 8.97598 80.6263 8.1271C79.7775 7.27822 79.3534 6.21367 79.3534 5C79.3534 3.78633 79.7775 2.72177 80.6263 1.87289C81.4752 1.02401 82.5398 0.599998 83.7534 0.599998C84.9671 0.599998 86.0317 1.02401 86.8805 1.87289C87.7294 2.72177 88.1534 3.78633 88.1534 5C88.1534 6.21203 87.7306 7.27534 86.884 8.12366C86.0434 8.97969 84.9745 9.4 83.7534 9.4ZM81.3334 7.42C81.9868 8.07333 82.7934 8.4 83.7534 8.4C84.7268 8.4 85.5334 8.07333 86.1734 7.42C86.8268 6.76666 87.1534 5.96 87.1534 5C87.1534 4.04 86.8268 3.23333 86.1734 2.58C85.5201 1.92666 84.7134 1.6 83.7534 1.6C82.7934 1.6 81.9868 1.92666 81.3334 2.58C80.6801 3.23333 80.3534 4.04 80.3534 5C80.3534 5.96 80.6801 6.76666 81.3334 7.42Z" fill="url(#paint2_linear_8_45)"/>
<path fill-rule="evenodd" clip-rule="evenodd" d="M66.8412 13.6V20.541C66.877 20.1598 66.9208 19.7865 66.9725 19.4212C66.9754 19.4008 66.9783 19.3804 66.9812 19.36C67.1496 18.1818 67.431 17.1418 67.8257 16.2402L67.8264 16.2385C67.8313 16.2273 67.8363 16.2161 67.8412 16.2048C67.8479 16.1899 67.8546 16.1749 67.8613 16.16C68.2671 15.2566 68.8209 14.546 69.5225 14.0283L69.5237 14.0274C69.5362 14.0182 69.5487 14.0091 69.5612 14C70.2812 13.4667 71.1813 13.2 72.2613 13.2C72.8301 13.2 73.3454 13.279 73.8072 13.437C74.0835 13.5316 74.3406 13.6544 74.5786 13.8055C74.5862 13.8103 74.5937 13.8151 74.6012 13.82C74.8317 13.9641 75.0423 14.1245 75.233 14.3014C75.5704 14.6144 75.8456 14.9788 76.0585 15.3946L76.0612 15.4C76.1388 15.5488 76.2073 15.6998 76.2667 15.8529L76.2683 15.8568C76.3422 16.0479 76.4022 16.2423 76.4482 16.44C76.4919 16.6279 76.5229 16.8188 76.5413 17.0128C76.5546 17.1536 76.5612 17.296 76.5612 17.44C76.5612 17.5756 76.5546 17.7087 76.5413 17.8391C76.5201 18.0459 76.4822 18.2463 76.4275 18.44C76.2828 18.9526 76.0207 19.4193 75.6413 19.84C75.0413 20.52 74.2412 20.86 73.2412 20.86C72.2412 20.86 71.4279 20.5533 70.8013 19.94C70.1879 19.3267 69.8812 18.5933 69.8812 17.74C69.8812 16.7667 70.1946 15.9667 70.8213 15.34C71.3755 14.7973 72.0447 14.4896 72.8289 14.4169C72.9503 14.4056 73.0744 14.4 73.2012 14.4C73.3298 14.4 73.4556 14.4059 73.5787 14.4177C73.7693 14.436 73.9535 14.4685 74.1312 14.5152C74.1372 14.5168 74.1432 14.5183 74.1492 14.5199C74.1534 14.5211 74.1575 14.5222 74.1617 14.5233C74.4296 14.5964 74.6828 14.702 74.9212 14.84C75.2615 15.037 75.5506 15.27 75.7886 15.5391L75.7899 15.5405C75.9056 15.6716 76.0097 15.8118 76.1012 15.96C76.122 15.9921 76.1421 16.0245 76.1614 16.057C76.1483 16.0206 76.1345 15.9844 76.1203 15.9482C76.0581 15.7907 75.9855 15.6352 75.9027 15.4826L75.9019 15.4813L75.9013 15.48C75.6982 15.0983 75.4433 14.7611 75.1363 14.4685C74.9458 14.2867 74.7352 14.1222 74.5045 13.9748L74.5022 13.9733C74.4953 13.9689 74.4883 13.9644 74.4812 13.96C74.1028 13.7214 73.6761 13.5564 73.2012 13.4651C73.0872 13.4431 72.9703 13.4254 72.8507 13.412C72.6612 13.3907 72.4647 13.38 72.2613 13.38C71.2267 13.38 70.3594 13.6308 69.6593 14.1324L69.6577 14.1335C69.6455 14.1423 69.6333 14.1511 69.6212 14.16C68.9481 14.6649 68.4069 15.352 67.9977 16.2213C67.9854 16.2474 67.9733 16.2736 67.9613 16.3C67.92 16.3934 67.88 16.4883 67.8412 16.5846C67.5099 17.4076 67.2663 18.3388 67.1104 19.3784C67.1073 19.3989 67.1042 19.4195 67.1012 19.44C66.9279 20.6267 66.8412 21.8867 66.8412 23.22V31.84H69.8012V32H58.6413V31.84H61.2612V13.76H58.6413V13.6H66.8412ZM60.2612 14.76V30.84H57.6413V33H70.8012V30.84H67.8412V23.22C67.8412 21.9298 67.9251 20.7184 68.0908 19.5845C68.2533 18.4717 68.5181 17.5169 68.8737 16.7092C68.9495 16.5435 69.0298 16.3871 69.1146 16.2397C68.958 16.707 68.8812 17.2094 68.8812 17.74C68.8812 18.8634 69.2967 19.8497 70.0941 20.6471L70.1018 20.6547C70.942 21.477 72.0195 21.86 73.2412 21.86C74.4933 21.86 75.5773 21.4216 76.3875 20.5056C76.9347 19.8977 77.2931 19.2037 77.4573 18.44H77.5413V17.8869C77.5546 17.7401 77.5612 17.5911 77.5612 17.44C77.5612 16.56 77.3562 15.7228 76.9499 14.9414C76.5329 14.1258 75.9222 13.4678 75.1375 12.9759C74.3063 12.4411 73.3307 12.2 72.2613 12.2C71.0143 12.2 69.8953 12.5099 68.971 13.1927C68.546 13.5003 68.17 13.8618 67.8412 14.2727V12.6H57.6413V14.76H60.2612Z" fill="url(#paint3_linear_8_45)"/>
<path fill-rule="evenodd" clip-rule="evenodd" d="M34.3381 28.4553L34.3346 28.4491C33.4341 26.8432 33.0069 24.9534 33.0069 22.82C33.0069 20.6866 33.4341 18.7969 34.3346 17.1909L34.3362 17.1882C35.2263 15.6122 36.398 14.3779 37.8569 13.5198C39.2984 12.6586 40.8472 12.22 42.4869 12.22C44.5517 12.22 46.2655 12.9919 47.522 14.5481C47.592 14.6332 47.6603 14.7199 47.7269 14.8085V3.16H45.1069V1H55.3269V30.84H57.9469V33H47.7269V30.8553C47.6667 30.9355 47.6052 31.0142 47.5423 31.0915L47.539 31.0954C46.2779 32.6279 44.5566 33.38 42.4869 33.38C40.8495 33.38 39.302 32.9494 37.8602 32.1022C36.4022 31.2454 35.2296 30.019 34.3381 28.4553ZM48.7269 32H56.9469V31.84H54.3269V2H46.1069V2.16H48.7269V20.68C48.6097 19.5825 48.4056 18.6006 48.1146 17.734L48.1142 17.7329C47.9988 17.3893 47.8697 17.064 47.7269 16.7567C47.4512 16.1635 47.1245 15.6379 46.7469 15.18C46.5864 14.9809 46.4174 14.797 46.2399 14.6283L46.2387 14.6271C45.5303 13.9541 44.6863 13.5225 43.7069 13.3323C43.3212 13.2574 42.9146 13.22 42.4869 13.22C42.3411 13.22 42.1962 13.2239 42.0521 13.2317C40.7589 13.3014 39.5305 13.6842 38.3669 14.38C37.0735 15.14 36.0202 16.24 35.2069 17.68C34.4069 19.1067 34.0069 20.82 34.0069 22.82C34.0069 24.82 34.4069 26.5333 35.2069 27.96C36.0202 29.3867 37.0735 30.48 38.3669 31.24C39.5275 31.922 40.7525 32.298 42.0419 32.368C42.1894 32.376 42.3377 32.38 42.4869 32.38C42.9146 32.38 43.3213 32.3439 43.7069 32.2716C44.6929 32.0867 45.541 31.6655 46.2513 31.008C46.432 30.8407 46.604 30.6579 46.7669 30.46C47.136 30.0068 47.456 29.4872 47.7269 28.9014C47.8712 28.5893 48.0016 28.2583 48.118 27.9085C48.4065 27.0416 48.6096 26.0582 48.7269 24.96V32ZM48.6282 24.9015C48.694 24.2539 48.7269 23.5601 48.7269 22.82C48.7269 22.0799 48.694 21.3861 48.6282 20.7385C48.6266 20.7226 48.625 20.7068 48.6233 20.6911C48.6229 20.6874 48.6225 20.6837 48.6222 20.68C48.5064 19.5784 48.2946 18.6118 47.9869 17.78C47.9045 17.5513 47.8179 17.3323 47.7269 17.1232C47.4088 16.392 47.0379 15.7807 46.6142 15.2894L46.6129 15.288C46.4519 15.1013 46.2832 14.932 46.1069 14.78C45.3469 14.1133 44.5469 13.78 43.7069 13.78C43.248 13.78 42.8414 13.9002 42.4869 14.1406C42.4494 14.166 42.4125 14.1928 42.3762 14.2209C42.1671 14.3827 41.9773 14.5891 41.8069 14.84C41.3269 15.5467 40.9735 16.5733 40.7469 17.92C40.5202 19.2667 40.4069 20.9 40.4069 22.82C40.4069 24.74 40.5202 26.3733 40.7469 27.72C40.9735 29.0533 41.3269 30.0733 41.8069 30.78C41.9743 31.0218 42.1604 31.2215 42.3651 31.379C42.405 31.4097 42.4456 31.4387 42.4869 31.4662C42.8414 31.7021 43.248 31.82 43.7069 31.82C44.5469 31.82 45.3469 31.4933 46.1069 30.84C46.2829 30.6883 46.4513 30.5196 46.6122 30.334L46.6128 30.3332C47.0371 29.8435 47.4084 29.2359 47.7269 28.5105C47.8179 28.3033 47.9045 28.0865 47.9869 27.86C48.2946 27.0282 48.5064 26.0616 48.6222 24.96C48.6225 24.9563 48.6229 24.9526 48.6233 24.9489C48.625 24.9332 48.6266 24.9174 48.6282 24.9015ZM45.455 30.0817C46.0587 29.5609 46.6049 28.7344 47.0471 27.5183L47.049 27.513C47.4878 26.3271 47.7269 24.7745 47.7269 22.82C47.7269 20.8655 47.4878 19.3129 47.049 18.127L47.046 18.1187C46.6028 16.8876 46.0559 16.0564 45.4539 15.5374L45.4474 15.5318C44.8309 14.991 44.257 14.78 43.7069 14.78C43.2837 14.78 42.9468 14.9415 42.6341 15.4019C42.269 15.9394 41.9485 16.8058 41.733 18.086C41.5184 19.3608 41.4069 20.9352 41.4069 22.82C41.4069 24.7048 41.5184 26.2792 41.733 27.554C41.9476 28.8156 42.2666 29.6753 42.6315 30.2143C42.9399 30.6581 43.2764 30.82 43.7069 30.82C44.263 30.82 44.839 30.6109 45.4539 30.0826" fill="url(#paint4_linear_8_45)"/>
<path fill-rule="evenodd" clip-rule="evenodd" d="M8.16062 21.7692L4.97215 30.84H0.840622V33H11.6406V30.84H7.29196L9.93447 23.32H18.0138L20.4462 30.84H17.2406V33H32.8606V30.84H29.7126L19.1726 0.399994H15.6722L8.38181 21.14H8.16062V21.7692ZM1.84062 31.84V32H10.6406V31.84H5.88062L9.22592 22.32H18.7413L21.8206 31.84H18.2406V32H31.8606V31.84H29.0006L18.4606 1.39999H16.3806L5.68062 31.84H1.84062ZM9.28917 22.14H18.6831L14.1806 8.22L9.28917 22.14ZM10.7005 21.14L14.1414 11.348L17.3086 21.14H10.7005Z" fill="url(#paint5_linear_8_45)"/>
<defs>
<linearGradient id="paint0_linear_8_45" x1="-791.341" y1="14.3615" x2="211.629" y2="-4.57775" gradientUnits="userSpaceOnUse">
<stop/>
<stop offset="1" stop-color="white"/>
</linearGradient>
<linearGradient id="paint1_linear_8_45" x1="-699.945" y1="14.025" x2="351.274" y2="-7.10137" gradientUnits="userSpaceOnUse">
<stop/>
<stop offset="1" stop-color="white"/>
</linearGradient>
<linearGradient id="paint2_linear_8_45" x1="-1163.66" y1="21.1778" x2="788.039" y2="-90.8614" gradientUnits="userSpaceOnUse">
<stop/>
<stop offset="1" stop-color="white"/>
</linearGradient>
<linearGradient id="paint3_linear_8_45" x1="-613" y1="14.3615" x2="646.496" y2="-15.5109" gradientUnits="userSpaceOnUse">
<stop/>
<stop offset="1" stop-color="white"/>
</linearGradient>
<linearGradient id="paint4_linear_8_45" x1="-353.953" y1="20.7829" x2="651.719" y2="-8.87466" gradientUnits="userSpaceOnUse">
<stop/>
<stop offset="1" stop-color="white"/>
</linearGradient>
<linearGradient id="paint5_linear_8_45" x1="-31.5" y1="21" x2="151.5" y2="20" gradientUnits="userSpaceOnUse">
<stop/>
<stop offset="1" stop-color="white"/>
</linearGradient>
</defs>
</svg>
